<svg width="20" height="20" viewBox="0 0 20 20" fill="none" xmlns="http://www.w3.org/2000/svg">
<g clip-path="url(#clip0_168_251)">
<path d="M0 0H20V20H0V0Z" fill="white" fill-opacity="0.01"/>
<path d="M9.99996 1.6665C6.77829 1.6665 4.16663 4.27817 4.16663 7.49984V15.8332H15.8333V7.49984C15.8333 4.27817 13.2216 1.6665 9.99996 1.6665Z" fill="#222222"/>
<path d="M4.16663 15.8332V7.49984C4.16663 4.27817 6.77829 1.6665 9.99996 1.6665C13.2216 1.6665 15.8333 4.27817 15.8333 7.49984V15.8332M1.66663 15.8332H18.3333" stroke="#222222" stroke-width="2" stroke-linecap="round" stroke-linejoin="round"/>
<path d="M9.99996 18.3333C11.1505 18.3333 12.0833 17.4005 12.0833 16.2499V15.8333H7.91663V16.2499C7.91663 17.4005 8.84938 18.3333 9.99996 18.3333Z" fill="#222222" stroke="#222222" stroke-width="2" stroke-linecap="round" stroke-linejoin="round"/>
</g>
<defs>
<clipPath id="clip0_168_251">
<rect width="20" height="20" fill="white"/>
</clipPath>
</defs>
</svg>
